<mxfile host="Electron" modified="2024-03-29T08:53:59.243Z" agent="Mozilla/5.0 (Macintosh; Intel Mac OS X 10_15_7) AppleWebKit/537.36 (KHTML, like Gecko) draw.io/24.1.0 Chrome/120.0.6099.109 Electron/28.1.0 Safari/537.36" etag="yX2mWwzSXRW9J7dxHwjA" version="24.1.0" type="device">
  <diagram name="第 1 页" id="5HAfSekI-rI9VkYCY6co">
    <mxGraphModel dx="1026" dy="653" grid="1" gridSize="10" guides="1" tooltips="1" connect="1" arrows="1" fold="1" page="1" pageScale="1" pageWidth="1600" pageHeight="1200" math="0" shadow="0">
      <root>
        <mxCell id="0" />
        <mxCell id="1" parent="0" />
        <mxCell id="x0zW40fGNQmHzZbWEuv--1" value="&lt;font style=&quot;font-size: 24px;&quot;&gt;Call&lt;br&gt;&quot;print-int&quot;&lt;/font&gt;" style="rounded=0;whiteSpace=wrap;html=1;fillColor=#ffe6cc;strokeColor=#d79b00;" parent="1" vertex="1">
          <mxGeometry x="280" y="360" width="160" height="80" as="geometry" />
        </mxCell>
        <mxCell id="x0zW40fGNQmHzZbWEuv--2" value="&lt;font style=&quot;font-size: 24px;&quot;&gt;tail&lt;/font&gt;" style="rounded=0;whiteSpace=wrap;html=1;fontSize=24;" parent="1" vertex="1">
          <mxGeometry x="280" y="440" width="160" height="40" as="geometry" />
        </mxCell>
        <mxCell id="x0zW40fGNQmHzZbWEuv--3" value="rest" style="rounded=0;whiteSpace=wrap;html=1;fontSize=24;" parent="1" vertex="1">
          <mxGeometry x="480" y="440" width="120" height="40" as="geometry" />
        </mxCell>
        <mxCell id="x0zW40fGNQmHzZbWEuv--4" value="Instruction" style="text;html=1;align=center;verticalAlign=middle;whiteSpace=wrap;rounded=0;fontSize=24;" parent="1" vertex="1">
          <mxGeometry x="290" y="490" width="140" height="30" as="geometry" />
        </mxCell>
        <mxCell id="x0zW40fGNQmHzZbWEuv--5" value="Stack" style="text;html=1;align=center;verticalAlign=middle;whiteSpace=wrap;rounded=0;fontSize=24;" parent="1" vertex="1">
          <mxGeometry x="500" y="490" width="80" height="30" as="geometry" />
        </mxCell>
        <mxCell id="x0zW40fGNQmHzZbWEuv--7" value="&lt;font style=&quot;font-size: 24px;&quot;&gt;i32(x)&lt;/font&gt;" style="rounded=0;whiteSpace=wrap;html=1;fillColor=#fff2cc;strokeColor=#d6b656;" parent="1" vertex="1">
          <mxGeometry x="480" y="400" width="120" height="40" as="geometry" />
        </mxCell>
        <mxCell id="x0zW40fGNQmHzZbWEuv--10" value="&lt;font style=&quot;font-size: 24px;&quot;&gt;tail&lt;/font&gt;" style="rounded=0;whiteSpace=wrap;html=1;fontSize=24;" parent="1" vertex="1">
          <mxGeometry x="720" y="440" width="160" height="40" as="geometry" />
        </mxCell>
        <mxCell id="x0zW40fGNQmHzZbWEuv--11" value="rest" style="rounded=0;whiteSpace=wrap;html=1;fontSize=24;" parent="1" vertex="1">
          <mxGeometry x="920" y="440" width="120" height="40" as="geometry" />
        </mxCell>
        <mxCell id="x0zW40fGNQmHzZbWEuv--12" value="Instruction" style="text;html=1;align=center;verticalAlign=middle;whiteSpace=wrap;rounded=0;fontSize=24;" parent="1" vertex="1">
          <mxGeometry x="730" y="490" width="140" height="30" as="geometry" />
        </mxCell>
        <mxCell id="x0zW40fGNQmHzZbWEuv--16" value="Stack" style="text;html=1;align=center;verticalAlign=middle;whiteSpace=wrap;rounded=0;fontSize=24;" parent="1" vertex="1">
          <mxGeometry x="940" y="490" width="80" height="30" as="geometry" />
        </mxCell>
        <mxCell id="x0zW40fGNQmHzZbWEuv--17" value="" style="shape=flexArrow;endArrow=classic;html=1;rounded=0;" parent="1" edge="1">
          <mxGeometry width="50" height="50" relative="1" as="geometry">
            <mxPoint x="630" y="430" as="sourcePoint" />
            <mxPoint x="700" y="430" as="targetPoint" />
          </mxGeometry>
        </mxCell>
        <mxCell id="EHIDJ7IBc8OTgKDpKyjK-1" value="x" style="rounded=0;whiteSpace=wrap;html=1;fontSize=24;fillColor=#e1d5e7;strokeColor=#9673a6;" parent="1" vertex="1">
          <mxGeometry x="1160" y="440" width="40" height="40" as="geometry" />
        </mxCell>
        <mxCell id="EHIDJ7IBc8OTgKDpKyjK-2" value="Buffer" style="text;html=1;align=center;verticalAlign=middle;whiteSpace=wrap;rounded=0;fontSize=24;" parent="1" vertex="1">
          <mxGeometry x="1100" y="490" width="80" height="30" as="geometry" />
        </mxCell>
        <mxCell id="EHIDJ7IBc8OTgKDpKyjK-3" value="..." style="rounded=0;whiteSpace=wrap;html=1;fontSize=24;" parent="1" vertex="1">
          <mxGeometry x="1080" y="440" width="80" height="40" as="geometry" />
        </mxCell>
      </root>
    </mxGraphModel>
  </diagram>
</mxfile>
